# xmcd
#
# Track frame offsets:
# 150
# 24086
# 52264
# 69223
# 91037
# 108521
# 127575
# 147105
# 162951
# 179244
# 194977
# 200485
# 211024
# 229388
# 242051
# 245651
#
# Disc length: 3308 seconds
#
#
# Revision: 0
# Processed by: cddbd v1.5.2PL0 Copyright (c) Steve Scherf et al.
# Submitted via: FreeRIP 2.951 
#
DISCID=e40cea10
DTITLE=hofi
DYEAR=1900
DGENRE=zadny
TTITLE0=n
TTITLE1=d
TTITLE2=c
TTITLE3=j
TTITLE4=p
TTITLE5=k
TTITLE6=o
TTITLE7=f
TTITLE8=f
TTITLE9=f
TTITLE10=p
TTITLE11=l
TTITLE12=a
TTITLE13=n
TTITLE14=m
TTITLE15=u
EXTD=
EXTT0=
EXTT1=
EXTT2=
EXTT3=
EXTT4=
EXTT5=
EXTT6=
EXTT7=
EXTT8=
EXTT9=
EXTT10=
EXTT11=
EXTT12=
EXTT13=
EXTT14=
EXTT15=
PLAYORDER=
